<?xml version="1.0" encoding="UTF-8"?>
<svg id="Camada_2" data-name="Camada 2" xmlns="http://www.w3.org/2000/svg" viewBox="0 0 311.83 314.66">
  <defs>
    
  </defs>
  <g id="Eelementos_das_páginas" data-name="Eelementos das páginas">
    <g>
      <g>
        <line class="cls-1" x1="211.41" y1="109.98" x2="34.1" y2="314.66"></line>
        <path class="cls-2" d="m211.41,109.98c-56.03,66.19-119.74,139.75-177.31,204.68,56.02-66.19,119.75-139.74,177.31-204.68h0Z"></path>
      </g>
      <g>
        <line class="cls-1" x1="232.9" y1="174.33" y2="98.05"></line>
        <path class="cls-2" d="m232.9,174.33C158.04,150.72,74.33,123.31,0,98.05c74.87,23.61,158.57,51.03,232.9,76.28h0Z"></path>
      </g>
      <g>
        <line class="cls-1" x1="185.98" y1="212.63" x2="170.96" y2="0"></line>
        <path class="cls-2" d="m185.98,212.63c-5.59-68.05-11-144.47-15.02-212.63,5.6,68.05,10.99,144.47,15.02,212.63h0Z"></path>
      </g>
      <g>
        <line class="cls-1" x1="137.73" y1="187.27" x2="311.83" y2="105.9"></line>
        <path class="cls-2" d="m137.73,187.27c55.46-26.68,118.02-55.92,174.11-81.37-55.46,26.68-118.03,55.92-174.11,81.37h0Z"></path>
      </g>
      <g>
        <line class="cls-1" x1="142.67" y1="140.1" x2="270.54" y2="253.97"></line>
        <path class="cls-2" d="m142.67,140.1c41.37,36.02,87.33,76.94,127.88,113.87-41.38-36.02-87.33-76.94-127.88-113.87h0Z"></path>
      </g>
      <g>
        <line class="cls-1" x1="184.1" y1="128.72" x2="131.68" y2="268.91"></line>
        <path class="cls-2" d="m184.1,128.72c-16.27,45.09-35.11,95.47-52.43,140.19,16.27-45.09,35.12-95.47,52.43-140.19h0Z"></path>
      </g>
      <g>
        <line class="cls-1" x1="207.81" y1="158.42" x2="71.79" y2="161.82"></line>
        <path class="cls-2" d="m207.81,158.42c-43.55,1.57-92.43,2.79-136.02,3.4,43.55-1.57,92.43-2.79,136.02-3.4h0Z"></path>
      </g>
      <g>
        <line class="cls-1" x1="190.85" y1="187.21" x2="141.66" y2="78.65"></line>
        <path class="cls-2" d="m190.85,187.21c-16.15-34.6-33.83-73.61-49.19-108.56,16.15,34.6,33.83,73.61,49.19,108.56h0Z"></path>
      </g>
      <g>
        <line class="cls-1" x1="160.8" y1="182.91" x2="235.56" y2="107.89"></line>
        <path class="cls-2" d="m160.8,182.91c23.66-24.29,50.53-51.25,74.76-75.02-23.66,24.3-50.53,51.25-74.76,75.02h0Z"></path>
      </g>
      <g>
        <line class="cls-1" x1="154.2" y1="157.29" x2="242.89" y2="193.12"></line>
        <path class="cls-2" d="m154.2,157.29c28.54,11.17,60.41,24.04,88.69,35.83-28.54-11.16-60.41-24.04-88.69-35.83h0Z"></path>
      </g>
      <path class="cls-2" d="m173.54,143.62c.31,26.64.31,56.54,0,83.18-.31-26.64-.31-56.54,0-83.18h0Z"></path>
    </g>
  </g>
</svg>